HIERARCHY
ROOT Hips
{
	OFFSET 56.877701 -32.693596 43.373703
	CHANNELS 6 Xposition Yposition Zposition Zrotation Xrotation Yrotation
	JOINT Chest
	{
		OFFSET -0.779999 1.005800 5.403099
		CHANNELS 6 Xposition Yposition Zposition Zrotation Xrotation Yrotation
		JOINT Chest2
		{
			OFFSET 0.000000 0.000000 4.236801
			CHANNELS 6 Xposition Yposition Zposition Zrotation Xrotation Yrotation
			JOINT Neck
			{
				OFFSET 0.000000 0.000000 9.874401
				CHANNELS 6 Xposition Yposition Zposition Zrotation Xrotation Yrotation
				JOINT Head
				{
					OFFSET 0.000000 0.000002 2.173893
					CHANNELS 6 Xposition Yposition Zposition Zrotation Xrotation Yrotation
					End Site
					{
						OFFSET 0.000000 0.000000 6.508102
					}
				}
			}
			JOINT LeftCollar
			{
				OFFSET 2.681599 -0.377600 5.432499
				CHANNELS 6 Xposition Yposition Zposition Zrotation Xrotation Yrotation
				JOINT LeftShoulder
				{
					OFFSET 5.161499 0.000000 0.000000
					CHANNELS 6 Xposition Yposition Zposition Zrotation Xrotation Yrotation
					JOINT LeftElbow
					{
						OFFSET 0.000000 0.000000 -10.869099
						CHANNELS 6 Xposition Yposition Zposition Zrotation Xrotation Yrotation
						JOINT LeftWrist
						{
							OFFSET 0.000000 0.000000 -13.344799
							CHANNELS 6 Xposition Yposition Zposition Zrotation Xrotation Yrotation
							End Site
							{
								OFFSET 0.000000 0.000000 -2.173901
							}
						}
					}
				}
			}
			JOINT RightCollar
			{
				OFFSET -2.381901 -1.419600 6.136600
				CHANNELS 6 Xposition Yposition Zposition Zrotation Xrotation Yrotation
				JOINT RightShoulder
				{
					OFFSET -4.550499 0.000000 0.000000
					CHANNELS 6 Xposition Yposition Zposition Zrotation Xrotation Yrotation
					JOINT RightElbow
					{
						OFFSET 0.000000 0.000000 -11.106499
						CHANNELS 6 Xposition Yposition Zposition Zrotation Xrotation Yrotation
						JOINT RightWrist
						{
							OFFSET 0.000000 0.000000 -12.874298
							CHANNELS 6 Xposition Yposition Zposition Zrotation Xrotation Yrotation
							End Site
							{
								OFFSET 0.000000 0.000000 -2.173901
							}
						}
					}
				}
			}
		}
	}
	JOINT LeftHip
	{
		OFFSET 2.431900 0.469601 -2.489399
		CHANNELS 6 Xposition Yposition Zposition Zrotation Xrotation Yrotation
		JOINT LeftKnee
		{
			OFFSET 0.000000 -0.000004 -18.200201
			CHANNELS 6 Xposition Yposition Zposition Zrotation Xrotation Yrotation
			JOINT LeftAnkle
			{
				OFFSET 0.000000 0.000000 -16.279900
				CHANNELS 6 Xposition Yposition Zposition Zrotation Xrotation Yrotation
				End Site
				{
					OFFSET 0.000000 -8.394100 0.000000
				}
			}
		}
	}
	JOINT RightHip
	{
		OFFSET -1.987999 -0.073502 -2.713001
		CHANNELS 6 Xposition Yposition Zposition Zrotation Xrotation Yrotation
		JOINT RightKnee
		{
			OFFSET 0.000000 -0.000004 -19.547802
			CHANNELS 6 Xposition Yposition Zposition Zrotation Xrotation Yrotation
			JOINT RightAnkle
			{
				OFFSET 0.000000 0.000000 -14.881199
				CHANNELS 6 Xposition Yposition Zposition Zrotation Xrotation Yrotation
				End Site
				{
					OFFSET 0.000000 -7.922699 0.000000
				}
			}
		}
	}
}
MOTION
Frames: 5
Frame Time: 0.041667
37.854202 -56.923000 35.828709 4236.741207 56.843792 9.537873 -0.780006 1.005797 5.403094 -32.403722 -20.142402 4.471779 0.000008 -0.000002 4.236794 6.054219 -5.661502 -0.835363 0.000006 0.000006 9.874397 42.027605 -28.519180 -3.200475 0.000006 0.000005 2.173893 3.696180 -3.517132 5.919756 2.681603 -0.377594 5.432499 -26.211251 19.109510 -3.497782 5.161505 0.000009 0.000008 130.650659 -121.335374 53.440268 0.000008 0.000000 -10.869101 38.132700 -8.851819 7.954684 0.000004 -0.000003 -13.344793 -79.014115 11.082231 -91.682599 -2.381900 -1.419594 6.136600 1.725688 5.488536 15.013552 -4.550503 0.000000 0.000002 -1281.784555 -498.894502 -437.269257 -0.000005 -0.000002 -11.106489 674.230813 -12.497151 713.730398 0.000002 -0.000007 -12.874294 -297.074106 4.757193 59.674707 2.431888 0.469594 -2.489404 -239.653033 -45.763644 112.136632 -0.000002 -0.000004 -18.200209 236.216300 36.338054 81.641763 -0.000006 -0.000007 -16.279903 48.008109 14.053980 13.851240 -1.988010 -0.073509 -2.713011 -102.919811 -34.503981 -119.765578 -0.000008 0.000002 -19.547796 -1641.896826 67.744685 -108.228712 -0.000004 0.000003 -14.881197 2230.178942 85.322259 -372.320797
37.840599 -56.913395 35.828903 4236.787543 56.816461 9.534480 -0.780004 1.005798 5.403100 -32.357400 -20.167127 4.468175 0.000012 -0.000000 4.236801 6.051067 -5.629643 -0.830791 0.000004 0.000004 9.874402 41.952514 -28.432732 -3.200679 0.000010 0.000005 2.173894 3.735750 -3.576745 5.887024 2.681594 -0.377602 5.432507 -26.205931 19.045747 -3.654966 5.161497 -0.000010 0.000006 130.768042 -121.292644 53.632435 0.000013 -0.000002 -10.869103 37.963892 -8.865014 7.901158 0.000002 -0.000000 -13.344796 -78.876671 11.033907 -91.619877 -2.381905 -1.419598 6.136599 1.350488 6.549917 15.395296 -4.550506 0.000008 0.000000 -1282.327801 -497.869537 -438.154122 -0.000006 -0.000002 -11.106499 674.239283 -12.551553 713.678379 0.000010 -0.000005 -12.874290 -297.005831 4.769639 59.805854 2.431890 0.469599 -2.489405 -239.663415 -45.879094 112.100896 0.000000 -0.000008 -18.200207 236.303727 36.366615 81.617653 -0.000008 -0.000002 -16.279900 47.974890 14.050770 13.833906 -1.988004 -0.073505 -2.713005 -102.848176 -34.414147 -119.687358 -0.000003 0.000000 -19.547796 -1641.858577 67.557913 -108.163921 -0.000003 0.000008 -14.881195 2228.951038 85.286803 -371.213541
37.826401 -56.904297 35.828304 4236.818579 56.810846 9.534330 -0.780006 1.005801 5.403096 -32.302867 -20.219807 4.463591 0.000010 -0.000004 4.236804 6.043717 -5.592874 -0.825452 0.000013 0.000000 9.874400 41.862298 -28.357042 -3.201870 0.000002 0.000005 2.173893 3.771333 -3.622647 5.844996 2.681603 -0.377606 5.432505 -26.174910 18.960894 -3.847822 5.161501 -0.000004 0.000000 130.857040 -121.209739 53.828219 0.000001 -0.000001 -10.869093 37.952643 -8.855574 7.887464 0.000003 -0.000000 -13.344804 -78.934181 10.960418 -91.534104 -2.381897 -1.419604 6.136600 1.325933 6.447084 15.644555 -4.550505 0.000010 -0.000004 -1282.453585 -497.971170 -438.324876 -0.000007 0.000001 -11.106512 674.258735 -12.601359 713.626142 0.000003 -0.000002 -12.874292 -296.972254 4.756634 59.979224 2.431899 0.469605 -2.489400 -239.658361 -45.965889 112.083766 0.000003 -0.000009 -18.200201 236.378531 36.400954 81.598603 -0.000006 -0.000007 -16.279900 47.935552 14.048228 13.815069 -1.988003 -0.073503 -2.713005 -102.793732 -34.331563 -119.640585 -0.000001 -0.000001 -19.547794 -1641.821202 67.425141 -108.070491 -0.000014 0.000002 -14.881199 2228.136224 85.230673 -370.468313
37.810997 -56.895393 35.827404 4236.835628 56.833082 9.531252 -0.780004 1.005803 5.403106 -32.247997 -20.307356 4.457464 0.000003 -0.000001 4.236795 6.033620 -5.555204 -0.819864 -0.000002 0.000006 9.874407 41.761228 -28.291304 -3.208095 0.000018 0.000005 2.173901 3.796354 -3.649670 5.796666 2.681595 -0.377601 5.432500 -26.125480 18.872289 -4.049509 5.161501 -0.000004 0.000004 130.922145 -121.112668 54.011514 0.000005 0.000004 -10.869102 38.245275 -8.799347 7.934388 0.000010 0.000003 -13.344795 -79.281755 10.902355 -91.507459 -2.381901 -1.419595 6.136597 1.317127 6.358984 15.888198 -4.550503 0.000008 0.000003 -1282.611609 -498.090835 -438.500631 -0.000007 0.000002 -11.106501 674.275127 -12.649151 713.568386 0.000003 -0.000010 -12.874295 -296.920426 4.757904 60.180148 2.431895 0.469610 -2.489399 -239.639072 -45.996874 112.085166 0.000000 -0.000001 -18.200211 236.417764 36.428910 81.589506 -0.000013 -0.000005 -16.279900 47.894444 14.044448 13.799770 -1.988002 -0.073499 -2.713003 -102.768741 -34.302494 -119.642033 -0.000007 -0.000003 -19.547789 -1641.751261 67.338548 -108.106069 0.000001 0.000009 -14.881196 2226.905260 85.224710 -369.269287
37.794899 -56.886597 35.826199 4236.843496 56.874046 9.520222 -0.780001 1.005798 5.403098 -32.197747 -20.419453 4.457313 0.000012 0.000002 4.236799 6.020797 -5.523600 -0.815066 0.000006 0.000011 9.874395 41.659106 -28.235240 -3.223722 0.000003 0.000011 2.173892 3.809033 -3.664928 5.743497 2.681603 -0.377592 5.432499 -26.066264 18.800627 -4.231320 5.161500 0.000005 -0.000006 130.972333 -121.027592 54.168929 0.000006 -0.000003 -10.869098 38.538779 -8.744898 7.991046 0.000000 0.000004 -13.344799 -79.605629 10.864082 -91.536310 -2.381904 -1.419597 6.136590 1.321988 6.297600 16.087541 -4.550504 0.000008 0.000009 -1282.755425 -498.200282 -438.634093 0.000007 0.000002 -11.106510 674.303596 -12.677805 713.519482 0.000002 -0.000006 -12.874300 -296.802647 4.778282 60.415960 2.431900 0.469603 -2.489395 -239.628280 -45.852689 112.064806 0.000010 -0.000003 -18.200203 236.276270 36.356598 81.624340 -0.000006 0.000005 -16.279896 47.892327 14.022591 13.823864 -1.988008 -0.073507 -2.713003 -102.791950 -34.447646 -119.712439 -0.000010 -0.000004 -19.547798 -1641.796722 67.385922 -108.164973 -0.000015 0.000005 -14.881196 2226.109898 85.199807 -368.457997
